<svg width="23" height="23" viewBox="0 0 23 23" fill="none" xmlns="http://www.w3.org/2000/svg">
<path d="M20.688 0.5625H2.43164C1.43408 0.5625 0.5625 1.28027 0.5625 2.26611V20.563C0.5625 21.5542 1.43408 22.4375 2.43164 22.4375H20.6826C21.6855 22.4375 22.4375 21.5483 22.4375 20.563V2.26611C22.4434 1.28027 21.6855 0.5625 20.688 0.5625ZM7.34326 18.7964H4.20947V9.05273H7.34326V18.7964ZM5.88477 7.57129H5.8623C4.85937 7.57129 4.20996 6.82471 4.20996 5.89014C4.20996 4.93848 4.87646 4.20947 5.90186 4.20947C6.92725 4.20947 7.55469 4.93311 7.57715 5.89014C7.57666 6.82471 6.92725 7.57129 5.88477 7.57129ZM18.7964 18.7964H15.6626V13.4688C15.6626 12.1924 15.2065 11.3203 14.0728 11.3203C13.2065 11.3203 12.6938 11.9063 12.4658 12.4771C12.3804 12.6821 12.3574 12.9614 12.3574 13.2466V18.7964H9.22363V9.05273H12.3574V10.4087C12.8135 9.75928 13.5259 8.82471 15.1836 8.82471C17.2407 8.82471 18.7969 10.1807 18.7969 13.104L18.7964 18.7964Z" fill="#0D0F15"/>
</svg>
